# xmcd
#
# Track frame offsets:
# 150
# 11846
# 22548
# 36335
# 46235
# 55638
# 68278
# 79800
# 91320
# 100607
# 113620
# 122833
#
# Disc length: 1775 seconds
#
#
# Revision: 0
# Processed by: cddbd v1.4PL0 Copyright (c) Steve Scherf et al.
# Submitted via: FreeRIP 2.00 
#
DISCID=8006ed0c
DTITLE=Fausto Papetti - Fausto Papetti Vol. 1
DYEAR=2001
DGENRE=Instrumental Pop
TTITLE0=Strangers in the night
TTITLE1=Summertime
TTITLE2=Un hombre y una mujer
TTITLE3=Old man river
TTITLE4=Laura
TTITLE5=Saint Luis Blues
TTITLE6=Nacida libre
TTITLE7=El sonido de la música
TTITLE8=Filosofo de sábado por la noche
TTITLE9=Arrivederci Roma
TTITLE10=Tema de Arabesco
TTITLE11=Danny Boy
EXTD=
EXTT0=
EXTT1=
EXTT2=
EXTT3=
EXTT4=
EXTT5=
EXTT6=
EXTT7=
EXTT8=
EXTT9=
EXTT10=
EXTT11=
PLAYORDER=
